<svg width="98" height="33" viewBox="0 0 98 33" fill="none" xmlns="http://www.w3.org/2000/svg">
<path d="M6.36064 22.4864V4.4022H0V0.660645H10.2945L16.837 4.4022H10.4764V22.4864H6.36064Z" fill="#6944FE"/>
<path d="M10.2945 22.4864V18.8695H13.163V4.27748H10.2945V0.660645H21.5191C22.8495 0.660645 24.0031 0.889295 24.9801 1.3466C25.9778 1.78311 26.7469 2.4171 27.2874 3.24855C27.8486 4.05922 28.1292 5.03618 28.1292 6.17944V6.49123C28.1292 7.48898 27.9421 8.31004 27.568 8.95442C27.1938 9.57802 26.7469 10.0665 26.2273 10.4199C25.7284 10.7524 25.2503 10.9915 24.793 11.137V11.6982C25.2503 11.8229 25.7492 12.062 26.2896 12.4154C26.8301 12.7479 27.2874 13.2364 27.6615 13.8808C28.0565 14.5252 28.2539 15.367 28.2539 16.4064V16.7181C28.2539 17.9238 27.9733 18.9631 27.4121 19.8361C26.8509 20.6884 26.0714 21.3431 25.0736 21.8004C24.0967 22.2577 22.9534 22.4864 21.6439 22.4864H10.2945ZM17.2787 18.7448H21.145C22.0388 18.7448 22.7559 18.5266 23.2964 18.09C23.8576 17.6535 24.1382 17.0299 24.1382 16.2193V15.9075C24.1382 15.0968 23.868 14.4732 23.3276 14.0367C22.7871 13.6002 22.0596 13.3819 21.145 13.3819H17.2787V18.7448ZM17.2787 9.64037H21.0826C21.9349 9.64037 22.6312 9.42212 23.1717 8.9856C23.7329 8.54909 24.0135 7.94628 24.0135 7.17718V6.86539C24.0135 6.0755 23.7433 5.4727 23.2028 5.05697C22.6624 4.62046 21.9557 4.4022 21.0826 4.4022H17.2787V9.64037Z" fill="#6944FE"/>
<path d="M21.7374 32.3391C20.0537 32.3391 18.5675 32.0377 17.2787 31.4349C15.99 30.8321 14.9818 29.9695 14.2543 28.847C13.5268 27.7246 13.163 26.3734 13.163 24.7937V23.9206H17.2164V24.7937C17.2164 26.1032 17.6217 27.0906 18.4324 27.7557C19.243 28.4001 20.3447 28.7223 21.7374 28.7223C23.1509 28.7223 24.2006 28.4417 24.8865 27.8804C25.5933 27.3192 25.9467 26.6021 25.9467 25.7291C25.9467 25.1263 25.77 24.6378 25.4166 24.2636C25.084 23.8895 24.5851 23.5881 23.92 23.3594C23.2756 23.11 22.4857 22.8813 21.5503 22.6735L20.8332 22.5176C19.3366 22.185 18.0478 21.7692 16.9669 21.2704C15.9068 20.7507 15.0858 20.0752 14.5037 19.2437C13.9425 18.4122 13.6619 17.3313 13.6619 16.001C13.6619 14.6707 13.9737 13.5378 14.5973 12.6024C15.2416 11.6463 16.1355 10.9187 17.2787 10.4199C18.4428 9.9002 19.8043 9.64037 21.3632 9.64037C22.9222 9.64037 24.3045 9.9106 25.5101 10.451C26.7365 10.9707 27.6927 11.7606 28.3787 12.8207C29.0854 13.86 29.4388 15.1696 29.4388 16.7493V17.6847H25.3854V16.7493C25.3854 15.9179 25.2191 15.2527 24.8865 14.7538C24.5747 14.2342 24.1174 13.86 23.5146 13.6314C22.9118 13.3819 22.1947 13.2572 21.3632 13.2572C20.1161 13.2572 19.1911 13.4963 18.5883 13.9743C18.0062 14.4316 17.7152 15.0656 17.7152 15.8763C17.7152 16.4167 17.8503 16.874 18.1206 17.2482C18.4116 17.6224 18.8377 17.9342 19.3989 18.1836C19.9602 18.433 20.6773 18.6513 21.5503 18.8384L22.2675 18.9943C23.8264 19.3268 25.1776 19.753 26.3208 20.2726C27.4848 20.7923 28.3891 21.4782 29.0334 22.3305C29.6778 23.1827 30 24.274 30 25.6043C30 26.9347 29.657 28.1091 28.9711 29.1276C28.3059 30.1254 27.3497 30.9153 26.1025 31.4973C24.8762 32.0585 23.4211 32.3391 21.7374 32.3391Z" fill="#6944FE"/>
<path d="M40.6838 17V7.368H37.2438V5.8H45.8518V7.368H42.4118V17H40.6838ZM46.3098 17V9.112H47.9258V10.04H48.1818C48.3098 9.70933 48.5124 9.46933 48.7898 9.32C49.0778 9.16 49.4298 9.08 49.8458 9.08H50.7898V10.568H49.7818C49.2484 10.568 48.8111 10.7173 48.4698 11.016C48.1284 11.304 47.9578 11.752 47.9578 12.36V17H46.3098ZM54.7265 17.224C54.1612 17.224 53.6545 17.128 53.2065 16.936C52.7692 16.744 52.4172 16.4613 52.1505 16.088C51.8945 15.7147 51.7665 15.2613 51.7665 14.728C51.7665 14.184 51.8945 13.736 52.1505 13.384C52.4172 13.0213 52.7745 12.7493 53.2225 12.568C53.6812 12.3867 54.1985 12.296 54.7745 12.296H57.1745V11.784C57.1745 11.3253 57.0358 10.9573 56.7585 10.68C56.4812 10.4027 56.0545 10.264 55.4785 10.264C54.9132 10.264 54.4812 10.3973 54.1825 10.664C53.8838 10.9307 53.6865 11.2773 53.5905 11.704L52.0545 11.208C52.1825 10.7813 52.3852 10.3973 52.6625 10.056C52.9505 9.704 53.3292 9.42133 53.7985 9.208C54.2678 8.99467 54.8332 8.888 55.4945 8.888C56.5185 8.888 57.3238 9.14933 57.9105 9.672C58.4972 10.1947 58.7905 10.936 58.7905 11.896V15.144C58.7905 15.464 58.9398 15.624 59.2385 15.624H59.9105V17H58.6785C58.3052 17 58.0012 16.904 57.7665 16.712C57.5318 16.52 57.4145 16.2587 57.4145 15.928V15.88H57.1745C57.0892 16.04 56.9612 16.2267 56.7905 16.44C56.6198 16.6533 56.3692 16.84 56.0385 17C55.7078 17.1493 55.2705 17.224 54.7265 17.224ZM54.9665 15.864C55.6278 15.864 56.1612 15.6773 56.5665 15.304C56.9718 14.92 57.1745 14.3973 57.1745 13.736V13.576H54.8705C54.4332 13.576 54.0812 13.672 53.8145 13.864C53.5478 14.0453 53.4145 14.3173 53.4145 14.68C53.4145 15.0427 53.5532 15.3307 53.8305 15.544C54.1078 15.7573 54.4865 15.864 54.9665 15.864ZM61.5129 17V9.112H63.1609V17H61.5129ZM62.3449 8.04C62.0249 8.04 61.7529 7.93867 61.5289 7.736C61.3155 7.52267 61.2089 7.25067 61.2089 6.92C61.2089 6.58933 61.3155 6.32267 61.5289 6.12C61.7529 5.90667 62.0249 5.8 62.3449 5.8C62.6755 5.8 62.9475 5.90667 63.1609 6.12C63.3742 6.32267 63.4809 6.58933 63.4809 6.92C63.4809 7.25067 63.3742 7.52267 63.1609 7.736C62.9475 7.93867 62.6755 8.04 62.3449 8.04ZM65.6066 17V9.112H67.2226V10.296H67.4786C67.628 9.976 67.8946 9.67733 68.2786 9.4C68.6626 9.12267 69.2333 8.984 69.9906 8.984C70.588 8.984 71.116 9.11733 71.5746 9.384C72.044 9.65067 72.412 10.0293 72.6786 10.52C72.9453 11 73.0786 11.5813 73.0786 12.264V17H71.4306V12.392C71.4306 11.7093 71.26 11.208 70.9186 10.888C70.5773 10.5573 70.108 10.392 69.5106 10.392C68.828 10.392 68.2786 10.616 67.8626 11.064C67.4573 11.512 67.2546 12.1627 67.2546 13.016V17H65.6066ZM79.0664 17.224C78.2664 17.224 77.5677 17.0587 76.9704 16.728C76.373 16.3867 75.9037 15.912 75.5624 15.304C75.2317 14.6853 75.0664 13.9707 75.0664 13.16V12.968C75.0664 12.1467 75.2317 11.432 75.5624 10.824C75.893 10.2053 76.3517 9.73067 76.9384 9.4C77.5357 9.05867 78.2237 8.888 79.0024 8.888C79.7597 8.888 80.421 9.05867 80.9864 9.4C81.5624 9.73067 82.0104 10.1947 82.3304 10.792C82.6504 11.3893 82.8104 12.088 82.8104 12.888V13.512H76.7464C76.7677 14.2053 76.997 14.76 77.4344 15.176C77.8824 15.5813 78.437 15.784 79.0984 15.784C79.717 15.784 80.181 15.6453 80.4904 15.368C80.8104 15.0907 81.0557 14.7707 81.2264 14.408L82.5864 15.112C82.437 15.4107 82.2184 15.7253 81.9304 16.056C81.653 16.3867 81.285 16.664 80.8264 16.888C80.3677 17.112 79.781 17.224 79.0664 17.224ZM76.7624 12.248H81.1304C81.0877 11.6507 80.8744 11.1867 80.4904 10.856C80.1064 10.5147 79.605 10.344 78.9864 10.344C78.3677 10.344 77.861 10.5147 77.4664 10.856C77.0824 11.1867 76.8477 11.6507 76.7624 12.248ZM84.7941 17V9.112H86.4101V10.04H86.6661C86.7941 9.70933 86.9968 9.46933 87.2741 9.32C87.5621 9.16 87.9141 9.08 88.3301 9.08H89.2741V10.568H88.2661C87.7328 10.568 87.2955 10.7173 86.9541 11.016C86.6128 11.304 86.4421 11.752 86.4421 12.36V17H84.7941ZM94.0418 17.224C93.0391 17.224 92.2071 17 91.5458 16.552C90.8844 16.104 90.4791 15.4267 90.3298 14.52L91.8658 14.152C91.9511 14.5893 92.0951 14.936 92.2978 15.192C92.5004 15.448 92.7511 15.6293 93.0498 15.736C93.3591 15.8427 93.6898 15.896 94.0418 15.896C94.5644 15.896 94.9644 15.7947 95.2418 15.592C95.5298 15.3893 95.6738 15.128 95.6738 14.808C95.6738 14.488 95.5404 14.2533 95.2738 14.104C95.0071 13.9547 94.6124 13.832 94.0898 13.736L93.5458 13.64C93.0124 13.544 92.5271 13.4053 92.0898 13.224C91.6524 13.0427 91.3058 12.792 91.0498 12.472C90.7938 12.152 90.6658 11.7413 90.6658 11.24C90.6658 10.4933 90.9431 9.91733 91.4978 9.512C92.0524 9.096 92.7884 8.888 93.7057 8.888C94.5911 8.888 95.3164 9.09067 95.8818 9.496C96.4578 9.89067 96.8311 10.4293 97.0018 11.112L95.4658 11.544C95.3698 11.064 95.1671 10.728 94.8578 10.536C94.5484 10.3333 94.1644 10.232 93.7057 10.232C93.2578 10.232 92.9058 10.3173 92.6498 10.488C92.3938 10.648 92.2658 10.8773 92.2658 11.176C92.2658 11.496 92.3884 11.7307 92.6338 11.88C92.8898 12.0293 93.2311 12.1413 93.6578 12.216L94.2178 12.312C94.7831 12.408 95.3004 12.5413 95.7698 12.712C96.2391 12.8827 96.6071 13.128 96.8738 13.448C97.1511 13.768 97.2898 14.1947 97.2898 14.728C97.2898 15.5173 96.9964 16.1307 96.4098 16.568C95.8231 17.0053 95.0338 17.224 94.0418 17.224Z" fill="#212121"/>
<path d="M40.2526 29.14C39.7726 29.14 39.4026 29.0533 39.1426 28.88C38.8892 28.7067 38.6992 28.5133 38.5726 28.3H38.4126V29H37.4026V22H38.4326V24.74H38.5926C38.6726 24.6067 38.7792 24.48 38.9126 24.36C39.0459 24.2333 39.2226 24.13 39.4426 24.05C39.6626 23.97 39.9326 23.93 40.2526 23.93C40.6659 23.93 41.0459 24.03 41.3926 24.23C41.7392 24.43 42.0159 24.72 42.2226 25.1C42.4292 25.48 42.5326 25.9333 42.5326 26.46V26.61C42.5326 27.1433 42.4259 27.6 42.2126 27.98C42.0059 28.3533 41.7292 28.64 41.3826 28.84C41.0426 29.04 40.6659 29.14 40.2526 29.14ZM39.9526 28.24C40.3992 28.24 40.7659 28.0967 41.0526 27.81C41.3459 27.5233 41.4926 27.1133 41.4926 26.58V26.49C41.4926 25.9633 41.3492 25.5567 41.0626 25.27C40.7759 24.9833 40.4059 24.84 39.9526 24.84C39.5126 24.84 39.1459 24.9833 38.8526 25.27C38.5659 25.5567 38.4226 25.9633 38.4226 26.49V26.58C38.4226 27.1133 38.5659 27.5233 38.8526 27.81C39.1459 28.0967 39.5126 28.24 39.9526 28.24ZM44.3788 31V30.1H47.1288C47.3155 30.1 47.4088 30 47.4088 29.8V28.28H47.2488C47.1888 28.4133 47.0955 28.5433 46.9688 28.67C46.8488 28.79 46.6855 28.89 46.4788 28.97C46.2722 29.05 46.0122 29.09 45.6988 29.09C45.3255 29.09 44.9922 29.0067 44.6988 28.84C44.4055 28.6733 44.1755 28.4367 44.0088 28.13C43.8422 27.8233 43.7588 27.46 43.7588 27.04V24.07H44.7888V26.96C44.7888 27.3867 44.8955 27.7033 45.1088 27.91C45.3222 28.11 45.6188 28.21 45.9988 28.21C46.4188 28.21 46.7555 28.07 47.0088 27.79C47.2688 27.51 47.3988 27.1033 47.3988 26.57V24.07H48.4288V30.01C48.4288 30.31 48.3388 30.55 48.1588 30.73C47.9855 30.91 47.7455 31 47.4388 31H44.3788ZM54.5202 29.14C53.8936 29.14 53.3736 29 52.9602 28.72C52.5469 28.44 52.2936 28.0167 52.2002 27.45L53.1602 27.22C53.2136 27.4933 53.3036 27.71 53.4302 27.87C53.5569 28.03 53.7136 28.1433 53.9002 28.21C54.0936 28.2767 54.3002 28.31 54.5202 28.31C54.8469 28.31 55.0969 28.2467 55.2702 28.12C55.4502 27.9933 55.5402 27.83 55.5402 27.63C55.5402 27.43 55.4569 27.2833 55.2902 27.19C55.1236 27.0967 54.8769 27.02 54.5502 26.96L54.2102 26.9C53.8769 26.84 53.5736 26.7533 53.3002 26.64C53.0269 26.5267 52.8102 26.37 52.6502 26.17C52.4902 25.97 52.4102 25.7133 52.4102 25.4C52.4102 24.9333 52.5836 24.5733 52.9302 24.32C53.2769 24.06 53.7369 23.93 54.3102 23.93C54.8636 23.93 55.3169 24.0567 55.6702 24.31C56.0302 24.5567 56.2636 24.8933 56.3702 25.32L55.4102 25.59C55.3502 25.29 55.2236 25.08 55.0302 24.96C54.8369 24.8333 54.5969 24.77 54.3102 24.77C54.0302 24.77 53.8102 24.8233 53.6502 24.93C53.4902 25.03 53.4102 25.1733 53.4102 25.36C53.4102 25.56 53.4869 25.7067 53.6402 25.8C53.8002 25.8933 54.0136 25.9633 54.2802 26.01L54.6302 26.07C54.9836 26.13 55.3069 26.2133 55.6002 26.32C55.8936 26.4267 56.1236 26.58 56.2902 26.78C56.4636 26.98 56.5502 27.2467 56.5502 27.58C56.5502 28.0733 56.3669 28.4567 56.0002 28.73C55.6336 29.0033 55.1402 29.14 54.5202 29.14ZM57.7541 31V24.07H58.7641V24.78H58.9241C59.0508 24.56 59.2408 24.3633 59.4941 24.19C59.7541 24.0167 60.1241 23.93 60.6041 23.93C61.0175 23.93 61.3941 24.03 61.7341 24.23C62.0808 24.43 62.3575 24.72 62.5641 25.1C62.7775 25.4733 62.8841 25.9267 62.8841 26.46V26.61C62.8841 27.1433 62.7808 27.6 62.5741 27.98C62.3675 28.3533 62.0908 28.64 61.7441 28.84C61.3975 29.04 61.0175 29.14 60.6041 29.14C60.2841 29.14 60.0141 29.1 59.7941 29.02C59.5741 28.94 59.3975 28.84 59.2641 28.72C59.1308 28.5933 59.0241 28.4633 58.9441 28.33H58.7841V31H57.7541ZM60.3041 28.24C60.7575 28.24 61.1275 28.0967 61.4141 27.81C61.7008 27.5233 61.8441 27.1133 61.8441 26.58V26.49C61.8441 25.9633 61.6975 25.5567 61.4041 25.27C61.1175 24.9833 60.7508 24.84 60.3041 24.84C59.8641 24.84 59.4975 24.9833 59.2041 25.27C58.9175 25.5567 58.7741 25.9633 58.7741 26.49V26.58C58.7741 27.1133 58.9175 27.5233 59.2041 27.81C59.4975 28.0967 59.8641 28.24 60.3041 28.24ZM66.4704 29.14C65.9771 29.14 65.5371 29.04 65.1504 28.84C64.7704 28.6333 64.4704 28.34 64.2504 27.96C64.0304 27.58 63.9204 27.13 63.9204 26.61V26.46C63.9204 25.94 64.0304 25.4933 64.2504 25.12C64.4704 24.74 64.7704 24.4467 65.1504 24.24C65.5371 24.0333 65.9771 23.93 66.4704 23.93C66.9637 23.93 67.4037 24.0333 67.7904 24.24C68.1771 24.4467 68.4804 24.74 68.7004 25.12C68.9204 25.4933 69.0304 25.94 69.0304 26.46V26.61C69.0304 27.13 68.9204 27.58 68.7004 27.96C68.4804 28.34 68.1771 28.6333 67.7904 28.84C67.4037 29.04 66.9637 29.14 66.4704 29.14ZM66.4704 28.22C66.9237 28.22 67.2904 28.0767 67.5704 27.79C67.8571 27.4967 68.0004 27.0933 68.0004 26.58V26.49C68.0004 25.9767 67.8604 25.5767 67.5804 25.29C67.3004 24.9967 66.9304 24.85 66.4704 24.85C66.0237 24.85 65.6571 24.9967 65.3704 25.29C65.0904 25.5767 64.9504 25.9767 64.9504 26.49V26.58C64.9504 27.0933 65.0904 27.4967 65.3704 27.79C65.6571 28.0767 66.0237 28.22 66.4704 28.22ZM70.3127 29V24.07H71.3227V24.65H71.4827C71.5627 24.4433 71.6894 24.2933 71.8627 24.2C72.0427 24.1 72.2627 24.05 72.5227 24.05H73.1127V24.98H72.4827C72.1494 24.98 71.8761 25.0733 71.6627 25.26C71.4494 25.44 71.3427 25.72 71.3427 26.1V29H70.3127ZM76.0299 29C75.7299 29 75.4899 28.91 75.3099 28.73C75.1366 28.55 75.0499 28.31 75.0499 28.01V24.94H73.6899V24.07H75.0499V22.44H76.0799V24.07H77.5499V24.94H76.0799V27.83C76.0799 28.03 76.1733 28.13 76.3599 28.13H77.3899V29H76.0299Z" fill="#6944FE"/>
</svg>
